<mxfile host="app.diagrams.net" modified="2024-05-24T04:11:08.520Z" agent="Mozilla/5.0 (Windows NT 10.0; Win64; x64) AppleWebKit/537.36 (KHTML, like Gecko) Chrome/125.0.0.0 Safari/537.36" version="24.4.7" etag="HoWkyl1DDt1HYY4uedcK" type="github">
  <diagram name="Page-1" id="z-4RRYl3wEnjXA_2tpNP">
    <mxGraphModel>
      <root>
        <mxCell id="0" />
        <mxCell id="1" parent="0" />
      </root>
    </mxGraphModel>
  </diagram>
</mxfile>
